<!DOCTYPE svg PUBLIC "-//W3C//DTD SVG 1.1//EN" "http://www.w3.org/Graphics/SVG/1.1/DTD/svg11.dtd">
<!-- Uploaded to: SVG Repo, www.svgrepo.com, Transformed by: SVG Repo Mixer Tools -->
<svg version="1.1" id="Icons" xmlns="http://www.w3.org/2000/svg" xmlns:xlink="http://www.w3.org/1999/xlink" viewBox="0 0 32 32" xml:space="preserve" width="800px" height="800px" fill="#ffffff" stroke="#ffffff">
<g id="SVGRepo_bgCarrier" stroke-width="0"/>
<g id="SVGRepo_tracerCarrier" stroke-linecap="round" stroke-linejoin="round"/>
<g id="SVGRepo_iconCarrier"> <style type="text/css"> .st0{fill:none;stroke:#ffffff;stroke-width:2;stroke-linecap:round;stroke-linejoin:round;stroke-miterlimit:10;} </style> <line class="st0" x1="16" y1="17" x2="16" y2="21"/> <line class="st0" x1="14" y1="19" x2="18" y2="19"/> <path class="st0" d="M25,29H7c-2.2,0-4-1.8-4-4V13c0-2.2,1.8-4,4-4h18c2.2,0,4,1.8,4,4v12C29,27.2,27.2,29,25,29z"/> <circle class="st0" cx="16" cy="19" r="6"/> <path class="st0" d="M21,9H11V7c0-2.2,1.8-4,4-4h2c2.2,0,4,1.8,4,4V9z"/> </g>
</svg>